<svg width="515" height="488" viewBox="0 0 515 488" fill="none" xmlns="http://www.w3.org/2000/svg">
<g id="undraw_file_analysis_8k9b 1">
<path id="Vector" d="M6.81267 13.6274C10.5756 13.6274 13.626 10.5769 13.626 6.81404C13.626 3.05114 10.5756 0.000701904 6.81267 0.000701904C3.04977 0.000701904 -0.000671387 3.05114 -0.000671387 6.81404C-0.000671387 10.5769 3.04977 13.6274 6.81267 13.6274Z" fill="#E6E6E6"/>
<path id="Vector_2" d="M41.3017 13.6274C45.0646 13.6274 48.115 10.5769 48.115 6.81404C48.115 3.05114 45.0646 0.000701904 41.3017 0.000701904C37.5388 0.000701904 34.4883 3.05114 34.4883 6.81404C34.4883 10.5769 37.5388 13.6274 41.3017 13.6274Z" fill="#E6E6E6"/>
<path id="Vector_3" d="M75.7908 13.6274C79.5537 13.6274 82.6041 10.5769 82.6041 6.81404C82.6041 3.05114 79.5537 0.000701904 75.7908 0.000701904C72.0279 0.000701904 68.9774 3.05114 68.9774 6.81404C68.9774 10.5769 72.0279 13.6274 75.7908 13.6274Z" fill="#E6E6E6"/>
<path id="Vector_4" d="M110.28 13.6274C114.043 13.6274 117.093 10.5769 117.093 6.81404C117.093 3.05114 114.043 0.000701904 110.28 0.000701904C106.517 0.000701904 103.466 3.05114 103.466 6.81404C103.466 10.5769 106.517 13.6274 110.28 13.6274Z" fill="#E6E6E6"/>
<path id="Vector_5" d="M144.769 13.6274C148.532 13.6274 151.582 10.5769 151.582 6.81404C151.582 3.05114 148.532 0.000701904 144.769 0.000701904C141.006 0.000701904 137.956 3.05114 137.956 6.81404C137.956 10.5769 141.006 13.6274 144.769 13.6274Z" fill="#E6E6E6"/>
<path id="Vector_6" d="M179.258 13.6274C183.021 13.6274 186.071 10.5769 186.071 6.81404C186.071 3.05114 183.021 0.000701904 179.258 0.000701904C175.495 0.000701904 172.445 3.05114 172.445 6.81404C172.445 10.5769 175.495 13.6274 179.258 13.6274Z" fill="#E6E6E6"/>
<path id="Vector_7" d="M213.747 13.6274C217.51 13.6274 220.56 10.5769 220.56 6.81404C220.56 3.05114 217.51 0.000701904 213.747 0.000701904C209.984 0.000701904 206.934 3.05114 206.934 6.81404C206.934 10.5769 209.984 13.6274 213.747 13.6274Z" fill="#E6E6E6"/>
<path id="Vector_8" d="M248.236 13.6274C251.999 13.6274 255.049 10.5769 255.049 6.81404C255.049 3.05114 251.999 0.000701904 248.236 0.000701904C244.473 0.000701904 241.423 3.05114 241.423 6.81404C241.423 10.5769 244.473 13.6274 248.236 13.6274Z" fill="#E6E6E6"/>
<path id="Vector_9" d="M282.725 13.6274C286.488 13.6274 289.538 10.5769 289.538 6.81404C289.538 3.05114 286.488 0.000701904 282.725 0.000701904C278.962 0.000701904 275.912 3.05114 275.912 6.81404C275.912 10.5769 278.962 13.6274 282.725 13.6274Z" fill="#E6E6E6"/>
<path id="Vector_10" d="M317.214 13.6274C320.977 13.6274 324.027 10.5769 324.027 6.81404C324.027 3.05114 320.977 0.000701904 317.214 0.000701904C313.451 0.000701904 310.401 3.05114 310.401 6.81404C310.401 10.5769 313.451 13.6274 317.214 13.6274Z" fill="#E6E6E6"/>
<path id="Vector_11" d="M6.81267 48.5493C10.5756 48.5493 13.626 45.4989 13.626 41.736C13.626 37.9731 10.5756 34.9226 6.81267 34.9226C3.04977 34.9226 -0.000671387 37.9731 -0.000671387 41.736C-0.000671387 45.4989 3.04977 48.5493 6.81267 48.5493Z" fill="#E6E6E6"/>
<path id="Vector_12" d="M41.3017 48.5493C45.0646 48.5493 48.115 45.4989 48.115 41.736C48.115 37.9731 45.0646 34.9226 41.3017 34.9226C37.5388 34.9226 34.4883 37.9731 34.4883 41.736C34.4883 45.4989 37.5388 48.5493 41.3017 48.5493Z" fill="#E6E6E6"/>
<path id="Vector_13" d="M75.7908 48.5493C79.5537 48.5493 82.6041 45.4989 82.6041 41.736C82.6041 37.9731 79.5537 34.9226 75.7908 34.9226C72.0279 34.9226 68.9774 37.9731 68.9774 41.736C68.9774 45.4989 72.0279 48.5493 75.7908 48.5493Z" fill="#E6E6E6"/>
<path id="Vector_14" d="M110.28 48.5493C114.043 48.5493 117.093 45.4989 117.093 41.736C117.093 37.9731 114.043 34.9226 110.28 34.9226C106.517 34.9226 103.466 37.9731 103.466 41.736C103.466 45.4989 106.517 48.5493 110.28 48.5493Z" fill="#6C63FF"/>
<path id="Vector_15" d="M144.769 48.5493C148.532 48.5493 151.582 45.4989 151.582 41.736C151.582 37.9731 148.532 34.9226 144.769 34.9226C141.006 34.9226 137.956 37.9731 137.956 41.736C137.956 45.4989 141.006 48.5493 144.769 48.5493Z" fill="#E6E6E6"/>
<path id="Vector_16" d="M179.258 48.5493C183.021 48.5493 186.071 45.4989 186.071 41.736C186.071 37.9731 183.021 34.9226 179.258 34.9226C175.495 34.9226 172.445 37.9731 172.445 41.736C172.445 45.4989 175.495 48.5493 179.258 48.5493Z" fill="#E6E6E6"/>
<path id="Vector_17" d="M213.747 48.5493C217.51 48.5493 220.56 45.4989 220.56 41.736C220.56 37.9731 217.51 34.9226 213.747 34.9226C209.984 34.9226 206.934 37.9731 206.934 41.736C206.934 45.4989 209.984 48.5493 213.747 48.5493Z" fill="#E6E6E6"/>
<path id="Vector_18" d="M248.236 48.5493C251.999 48.5493 255.049 45.4989 255.049 41.736C255.049 37.9731 251.999 34.9226 248.236 34.9226C244.473 34.9226 241.423 37.9731 241.423 41.736C241.423 45.4989 244.473 48.5493 248.236 48.5493Z" fill="#E6E6E6"/>
<path id="Vector_19" d="M282.725 48.5493C286.488 48.5493 289.538 45.4989 289.538 41.736C289.538 37.9731 286.488 34.9226 282.725 34.9226C278.962 34.9226 275.912 37.9731 275.912 41.736C275.912 45.4989 278.962 48.5493 282.725 48.5493Z" fill="#E6E6E6"/>
<path id="Vector_20" d="M317.214 48.5493C320.977 48.5493 324.027 45.4989 324.027 41.736C324.027 37.9731 320.977 34.9226 317.214 34.9226C313.451 34.9226 310.401 37.9731 310.401 41.736C310.401 45.4989 313.451 48.5493 317.214 48.5493Z" fill="#E6E6E6"/>
<path id="Vector_21" d="M6.81267 83.4713C10.5756 83.4713 13.626 80.4208 13.626 76.6579C13.626 72.895 10.5756 69.8446 6.81267 69.8446C3.04977 69.8446 -0.000671387 72.895 -0.000671387 76.6579C-0.000671387 80.4208 3.04977 83.4713 6.81267 83.4713Z" fill="#E6E6E6"/>
<path id="Vector_22" d="M41.3017 83.4713C45.0646 83.4713 48.115 80.4208 48.115 76.6579C48.115 72.895 45.0646 69.8446 41.3017 69.8446C37.5388 69.8446 34.4883 72.895 34.4883 76.6579C34.4883 80.4208 37.5388 83.4713 41.3017 83.4713Z" fill="#E6E6E6"/>
<path id="Vector_23" d="M75.7908 83.4713C79.5537 83.4713 82.6041 80.4208 82.6041 76.6579C82.6041 72.895 79.5537 69.8446 75.7908 69.8446C72.0279 69.8446 68.9774 72.895 68.9774 76.6579C68.9774 80.4208 72.0279 83.4713 75.7908 83.4713Z" fill="#E6E6E6"/>
<path id="Vector_24" d="M110.28 83.4713C114.043 83.4713 117.093 80.4208 117.093 76.6579C117.093 72.895 114.043 69.8446 110.28 69.8446C106.517 69.8446 103.466 72.895 103.466 76.6579C103.466 80.4208 106.517 83.4713 110.28 83.4713Z" fill="#E6E6E6"/>
<path id="Vector_25" d="M144.769 83.4713C148.532 83.4713 151.582 80.4208 151.582 76.6579C151.582 72.895 148.532 69.8446 144.769 69.8446C141.006 69.8446 137.956 72.895 137.956 76.6579C137.956 80.4208 141.006 83.4713 144.769 83.4713Z" fill="#E6E6E6"/>
<path id="Vector_26" d="M179.258 83.4713C183.021 83.4713 186.071 80.4208 186.071 76.6579C186.071 72.895 183.021 69.8446 179.258 69.8446C175.495 69.8446 172.445 72.895 172.445 76.6579C172.445 80.4208 175.495 83.4713 179.258 83.4713Z" fill="#E6E6E6"/>
<path id="Vector_27" d="M213.747 83.4713C217.51 83.4713 220.56 80.4208 220.56 76.6579C220.56 72.895 217.51 69.8446 213.747 69.8446C209.984 69.8446 206.934 72.895 206.934 76.6579C206.934 80.4208 209.984 83.4713 213.747 83.4713Z" fill="#E6E6E6"/>
<path id="Vector_28" d="M248.236 83.4713C251.999 83.4713 255.049 80.4208 255.049 76.6579C255.049 72.895 251.999 69.8446 248.236 69.8446C244.473 69.8446 241.423 72.895 241.423 76.6579C241.423 80.4208 244.473 83.4713 248.236 83.4713Z" fill="#E6E6E6"/>
<path id="Vector_29" d="M282.725 83.4713C286.488 83.4713 289.538 80.4208 289.538 76.6579C289.538 72.895 286.488 69.8446 282.725 69.8446C278.962 69.8446 275.912 72.895 275.912 76.6579C275.912 80.4208 278.962 83.4713 282.725 83.4713Z" fill="#E6E6E6"/>
<path id="Vector_30" d="M317.214 83.4713C320.977 83.4713 324.027 80.4208 324.027 76.6579C324.027 72.895 320.977 69.8446 317.214 69.8446C313.451 69.8446 310.401 72.895 310.401 76.6579C310.401 80.4208 313.451 83.4713 317.214 83.4713Z" fill="#E6E6E6"/>
<path id="Vector_31" d="M6.81267 118.393C10.5756 118.393 13.626 115.343 13.626 111.58C13.626 107.817 10.5756 104.767 6.81267 104.767C3.04977 104.767 -0.000671387 107.817 -0.000671387 111.58C-0.000671387 115.343 3.04977 118.393 6.81267 118.393Z" fill="#E6E6E6"/>
<path id="Vector_32" d="M41.3017 118.393C45.0646 118.393 48.115 115.343 48.115 111.58C48.115 107.817 45.0646 104.767 41.3017 104.767C37.5388 104.767 34.4883 107.817 34.4883 111.58C34.4883 115.343 37.5388 118.393 41.3017 118.393Z" fill="#E6E6E6"/>
<path id="Vector_33" d="M75.7908 118.393C79.5537 118.393 82.6041 115.343 82.6041 111.58C82.6041 107.817 79.5537 104.767 75.7908 104.767C72.0279 104.767 68.9774 107.817 68.9774 111.58C68.9774 115.343 72.0279 118.393 75.7908 118.393Z" fill="#E6E6E6"/>
<path id="Vector_34" d="M110.28 118.393C114.043 118.393 117.093 115.343 117.093 111.58C117.093 107.817 114.043 104.767 110.28 104.767C106.517 104.767 103.466 107.817 103.466 111.58C103.466 115.343 106.517 118.393 110.28 118.393Z" fill="#E6E6E6"/>
<path id="Vector_35" d="M144.769 118.393C148.532 118.393 151.582 115.343 151.582 111.58C151.582 107.817 148.532 104.767 144.769 104.767C141.006 104.767 137.956 107.817 137.956 111.58C137.956 115.343 141.006 118.393 144.769 118.393Z" fill="#E6E6E6"/>
<path id="Vector_36" d="M179.258 118.393C183.021 118.393 186.071 115.343 186.071 111.58C186.071 107.817 183.021 104.767 179.258 104.767C175.495 104.767 172.445 107.817 172.445 111.58C172.445 115.343 175.495 118.393 179.258 118.393Z" fill="#E6E6E6"/>
<path id="Vector_37" d="M213.747 118.393C217.51 118.393 220.56 115.343 220.56 111.58C220.56 107.817 217.51 104.767 213.747 104.767C209.984 104.767 206.934 107.817 206.934 111.58C206.934 115.343 209.984 118.393 213.747 118.393Z" fill="#E6E6E6"/>
<path id="Vector_38" d="M248.236 118.393C251.999 118.393 255.049 115.343 255.049 111.58C255.049 107.817 251.999 104.767 248.236 104.767C244.473 104.767 241.423 107.817 241.423 111.58C241.423 115.343 244.473 118.393 248.236 118.393Z" fill="#E6E6E6"/>
<path id="Vector_39" d="M282.725 118.393C286.488 118.393 289.538 115.343 289.538 111.58C289.538 107.817 286.488 104.767 282.725 104.767C278.962 104.767 275.912 107.817 275.912 111.58C275.912 115.343 278.962 118.393 282.725 118.393Z" fill="#E6E6E6"/>
<path id="Vector_40" d="M317.214 118.393C320.977 118.393 324.027 115.343 324.027 111.58C324.027 107.817 320.977 104.767 317.214 104.767C313.451 104.767 310.401 107.817 310.401 111.58C310.401 115.343 313.451 118.393 317.214 118.393Z" fill="#E6E6E6"/>
<path id="Vector_41" d="M6.81267 153.315C10.5756 153.315 13.626 150.265 13.626 146.502C13.626 142.739 10.5756 139.688 6.81267 139.688C3.04977 139.688 -0.000671387 142.739 -0.000671387 146.502C-0.000671387 150.265 3.04977 153.315 6.81267 153.315Z" fill="#E6E6E6"/>
<path id="Vector_42" d="M41.3017 153.315C45.0646 153.315 48.115 150.265 48.115 146.502C48.115 142.739 45.0646 139.688 41.3017 139.688C37.5388 139.688 34.4883 142.739 34.4883 146.502C34.4883 150.265 37.5388 153.315 41.3017 153.315Z" fill="#6C63FF"/>
<path id="Vector_43" d="M75.7908 153.315C79.5537 153.315 82.6041 150.265 82.6041 146.502C82.6041 142.739 79.5537 139.688 75.7908 139.688C72.0279 139.688 68.9774 142.739 68.9774 146.502C68.9774 150.265 72.0279 153.315 75.7908 153.315Z" fill="#E6E6E6"/>
<path id="Vector_44" d="M110.28 153.315C114.043 153.315 117.093 150.265 117.093 146.502C117.093 142.739 114.043 139.688 110.28 139.688C106.517 139.688 103.466 142.739 103.466 146.502C103.466 150.265 106.517 153.315 110.28 153.315Z" fill="#E6E6E6"/>
<path id="Vector_45" d="M144.769 153.315C148.532 153.315 151.582 150.265 151.582 146.502C151.582 142.739 148.532 139.688 144.769 139.688C141.006 139.688 137.956 142.739 137.956 146.502C137.956 150.265 141.006 153.315 144.769 153.315Z" fill="#E6E6E6"/>
<path id="Vector_46" d="M179.258 153.315C183.021 153.315 186.071 150.265 186.071 146.502C186.071 142.739 183.021 139.688 179.258 139.688C175.495 139.688 172.445 142.739 172.445 146.502C172.445 150.265 175.495 153.315 179.258 153.315Z" fill="#E6E6E6"/>
<path id="Vector_47" d="M213.747 153.315C217.51 153.315 220.56 150.265 220.56 146.502C220.56 142.739 217.51 139.688 213.747 139.688C209.984 139.688 206.934 142.739 206.934 146.502C206.934 150.265 209.984 153.315 213.747 153.315Z" fill="#E6E6E6"/>
<path id="Vector_48" d="M248.236 153.315C251.999 153.315 255.049 150.265 255.049 146.502C255.049 142.739 251.999 139.688 248.236 139.688C244.473 139.688 241.423 142.739 241.423 146.502C241.423 150.265 244.473 153.315 248.236 153.315Z" fill="#E6E6E6"/>
<path id="Vector_49" d="M282.725 153.315C286.488 153.315 289.538 150.265 289.538 146.502C289.538 142.739 286.488 139.688 282.725 139.688C278.962 139.688 275.912 142.739 275.912 146.502C275.912 150.265 278.962 153.315 282.725 153.315Z" fill="#E6E6E6"/>
<path id="Vector_50" d="M317.214 153.315C320.977 153.315 324.027 150.265 324.027 146.502C324.027 142.739 320.977 139.688 317.214 139.688C313.451 139.688 310.401 142.739 310.401 146.502C310.401 150.265 313.451 153.315 317.214 153.315Z" fill="#E6E6E6"/>
<path id="Vector_51" d="M6.81267 188.237C10.5756 188.237 13.626 185.187 13.626 181.424C13.626 177.661 10.5756 174.61 6.81267 174.61C3.04977 174.61 -0.000671387 177.661 -0.000671387 181.424C-0.000671387 185.187 3.04977 188.237 6.81267 188.237Z" fill="#E6E6E6"/>
<path id="Vector_52" d="M41.3017 188.237C45.0646 188.237 48.115 185.187 48.115 181.424C48.115 177.661 45.0646 174.61 41.3017 174.61C37.5388 174.61 34.4883 177.661 34.4883 181.424C34.4883 185.187 37.5388 188.237 41.3017 188.237Z" fill="#E6E6E6"/>
<path id="Vector_53" d="M75.7908 188.237C79.5537 188.237 82.6041 185.187 82.6041 181.424C82.6041 177.661 79.5537 174.61 75.7908 174.61C72.0279 174.61 68.9774 177.661 68.9774 181.424C68.9774 185.187 72.0279 188.237 75.7908 188.237Z" fill="#E6E6E6"/>
<path id="Vector_54" d="M110.28 188.237C114.043 188.237 117.093 185.187 117.093 181.424C117.093 177.661 114.043 174.61 110.28 174.61C106.517 174.61 103.466 177.661 103.466 181.424C103.466 185.187 106.517 188.237 110.28 188.237Z" fill="#E6E6E6"/>
<path id="Vector_55" d="M144.769 188.237C148.532 188.237 151.582 185.187 151.582 181.424C151.582 177.661 148.532 174.61 144.769 174.61C141.006 174.61 137.956 177.661 137.956 181.424C137.956 185.187 141.006 188.237 144.769 188.237Z" fill="#E6E6E6"/>
<path id="Vector_56" d="M179.258 188.237C183.021 188.237 186.071 185.187 186.071 181.424C186.071 177.661 183.021 174.61 179.258 174.61C175.495 174.61 172.445 177.661 172.445 181.424C172.445 185.187 175.495 188.237 179.258 188.237Z" fill="#E6E6E6"/>
<path id="Vector_57" d="M213.747 188.237C217.51 188.237 220.56 185.187 220.56 181.424C220.56 177.661 217.51 174.61 213.747 174.61C209.984 174.61 206.934 177.661 206.934 181.424C206.934 185.187 209.984 188.237 213.747 188.237Z" fill="#E6E6E6"/>
<path id="Vector_58" d="M248.236 188.237C251.999 188.237 255.049 185.187 255.049 181.424C255.049 177.661 251.999 174.61 248.236 174.61C244.473 174.61 241.423 177.661 241.423 181.424C241.423 185.187 244.473 188.237 248.236 188.237Z" fill="#E6E6E6"/>
<path id="Vector_59" d="M282.725 188.237C286.488 188.237 289.538 185.187 289.538 181.424C289.538 177.661 286.488 174.61 282.725 174.61C278.962 174.61 275.912 177.661 275.912 181.424C275.912 185.187 278.962 188.237 282.725 188.237Z" fill="#E6E6E6"/>
<path id="Vector_60" d="M317.214 188.237C320.977 188.237 324.027 185.187 324.027 181.424C324.027 177.661 320.977 174.61 317.214 174.61C313.451 174.61 310.401 177.661 310.401 181.424C310.401 185.187 313.451 188.237 317.214 188.237Z" fill="#E6E6E6"/>
<path id="Vector_61" d="M6.81267 223.159C10.5756 223.159 13.626 220.109 13.626 216.346C13.626 212.583 10.5756 209.532 6.81267 209.532C3.04977 209.532 -0.000671387 212.583 -0.000671387 216.346C-0.000671387 220.109 3.04977 223.159 6.81267 223.159Z" fill="#E6E6E6"/>
<path id="Vector_62" d="M41.3017 223.159C45.0646 223.159 48.115 220.109 48.115 216.346C48.115 212.583 45.0646 209.532 41.3017 209.532C37.5388 209.532 34.4883 212.583 34.4883 216.346C34.4883 220.109 37.5388 223.159 41.3017 223.159Z" fill="#E6E6E6"/>
<path id="Vector_63" d="M75.7908 223.159C79.5537 223.159 82.6041 220.109 82.6041 216.346C82.6041 212.583 79.5537 209.532 75.7908 209.532C72.0279 209.532 68.9774 212.583 68.9774 216.346C68.9774 220.109 72.0279 223.159 75.7908 223.159Z" fill="#6C63FF"/>
<path id="Vector_64" d="M110.28 223.159C114.043 223.159 117.093 220.109 117.093 216.346C117.093 212.583 114.043 209.532 110.28 209.532C106.517 209.532 103.466 212.583 103.466 216.346C103.466 220.109 106.517 223.159 110.28 223.159Z" fill="#E6E6E6"/>
<path id="Vector_65" d="M144.769 223.159C148.532 223.159 151.582 220.109 151.582 216.346C151.582 212.583 148.532 209.532 144.769 209.532C141.006 209.532 137.956 212.583 137.956 216.346C137.956 220.109 141.006 223.159 144.769 223.159Z" fill="#E6E6E6"/>
<path id="Vector_66" d="M179.258 223.159C183.021 223.159 186.071 220.109 186.071 216.346C186.071 212.583 183.021 209.532 179.258 209.532C175.495 209.532 172.445 212.583 172.445 216.346C172.445 220.109 175.495 223.159 179.258 223.159Z" fill="#E6E6E6"/>
<path id="Vector_67" d="M213.747 223.159C217.51 223.159 220.56 220.109 220.56 216.346C220.56 212.583 217.51 209.532 213.747 209.532C209.984 209.532 206.934 212.583 206.934 216.346C206.934 220.109 209.984 223.159 213.747 223.159Z" fill="#E6E6E6"/>
<path id="Vector_68" d="M248.236 223.159C251.999 223.159 255.049 220.109 255.049 216.346C255.049 212.583 251.999 209.532 248.236 209.532C244.473 209.532 241.423 212.583 241.423 216.346C241.423 220.109 244.473 223.159 248.236 223.159Z" fill="#E6E6E6"/>
<path id="Vector_69" d="M282.725 223.159C286.488 223.159 289.538 220.109 289.538 216.346C289.538 212.583 286.488 209.532 282.725 209.532C278.962 209.532 275.912 212.583 275.912 216.346C275.912 220.109 278.962 223.159 282.725 223.159Z" fill="#E6E6E6"/>
<path id="Vector_70" d="M317.214 223.159C320.977 223.159 324.027 220.109 324.027 216.346C324.027 212.583 320.977 209.532 317.214 209.532C313.451 209.532 310.401 212.583 310.401 216.346C310.401 220.109 313.451 223.159 317.214 223.159Z" fill="#E6E6E6"/>
<path id="Vector_71" d="M6.81267 258.081C10.5756 258.081 13.626 255.031 13.626 251.268C13.626 247.505 10.5756 244.454 6.81267 244.454C3.04977 244.454 -0.000671387 247.505 -0.000671387 251.268C-0.000671387 255.031 3.04977 258.081 6.81267 258.081Z" fill="#E6E6E6"/>
<path id="Vector_72" d="M41.3017 258.081C45.0646 258.081 48.115 255.031 48.115 251.268C48.115 247.505 45.0646 244.454 41.3017 244.454C37.5388 244.454 34.4883 247.505 34.4883 251.268C34.4883 255.031 37.5388 258.081 41.3017 258.081Z" fill="#E6E6E6"/>
<path id="Vector_73" d="M75.7908 258.081C79.5537 258.081 82.6041 255.031 82.6041 251.268C82.6041 247.505 79.5537 244.454 75.7908 244.454C72.0279 244.454 68.9774 247.505 68.9774 251.268C68.9774 255.031 72.0279 258.081 75.7908 258.081Z" fill="#E6E6E6"/>
<path id="Vector_74" d="M110.28 258.081C114.043 258.081 117.093 255.031 117.093 251.268C117.093 247.505 114.043 244.454 110.28 244.454C106.517 244.454 103.466 247.505 103.466 251.268C103.466 255.031 106.517 258.081 110.28 258.081Z" fill="#E6E6E6"/>
<path id="Vector_75" d="M144.769 258.081C148.532 258.081 151.582 255.031 151.582 251.268C151.582 247.505 148.532 244.454 144.769 244.454C141.006 244.454 137.956 247.505 137.956 251.268C137.956 255.031 141.006 258.081 144.769 258.081Z" fill="#E6E6E6"/>
<path id="Vector_76" d="M179.258 258.081C183.021 258.081 186.071 255.031 186.071 251.268C186.071 247.505 183.021 244.454 179.258 244.454C175.495 244.454 172.445 247.505 172.445 251.268C172.445 255.031 175.495 258.081 179.258 258.081Z" fill="#E6E6E6"/>
<path id="Vector_77" d="M213.747 258.081C217.51 258.081 220.56 255.031 220.56 251.268C220.56 247.505 217.51 244.454 213.747 244.454C209.984 244.454 206.934 247.505 206.934 251.268C206.934 255.031 209.984 258.081 213.747 258.081Z" fill="#E6E6E6"/>
<path id="Vector_78" d="M248.236 258.081C251.999 258.081 255.049 255.031 255.049 251.268C255.049 247.505 251.999 244.454 248.236 244.454C244.473 244.454 241.423 247.505 241.423 251.268C241.423 255.031 244.473 258.081 248.236 258.081Z" fill="#E6E6E6"/>
<path id="Vector_79" d="M282.725 258.081C286.488 258.081 289.538 255.031 289.538 251.268C289.538 247.505 286.488 244.454 282.725 244.454C278.962 244.454 275.912 247.505 275.912 251.268C275.912 255.031 278.962 258.081 282.725 258.081Z" fill="#E6E6E6"/>
<path id="Vector_80" d="M317.214 258.081C320.977 258.081 324.027 255.031 324.027 251.268C324.027 247.505 320.977 244.454 317.214 244.454C313.451 244.454 310.401 247.505 310.401 251.268C310.401 255.031 313.451 258.081 317.214 258.081Z" fill="#E6E6E6"/>
<path id="Vector_81" d="M6.81267 293.003C10.5756 293.003 13.626 289.953 13.626 286.19C13.626 282.427 10.5756 279.376 6.81267 279.376C3.04977 279.376 -0.000671387 282.427 -0.000671387 286.19C-0.000671387 289.953 3.04977 293.003 6.81267 293.003Z" fill="#E6E6E6"/>
<path id="Vector_82" d="M41.3017 293.003C45.0646 293.003 48.115 289.953 48.115 286.19C48.115 282.427 45.0646 279.376 41.3017 279.376C37.5388 279.376 34.4883 282.427 34.4883 286.19C34.4883 289.953 37.5388 293.003 41.3017 293.003Z" fill="#E6E6E6"/>
<path id="Vector_83" d="M75.7908 293.003C79.5537 293.003 82.6041 289.953 82.6041 286.19C82.6041 282.427 79.5537 279.376 75.7908 279.376C72.0279 279.376 68.9774 282.427 68.9774 286.19C68.9774 289.953 72.0279 293.003 75.7908 293.003Z" fill="#E6E6E6"/>
<path id="Vector_84" d="M110.28 293.003C114.043 293.003 117.093 289.953 117.093 286.19C117.093 282.427 114.043 279.376 110.28 279.376C106.517 279.376 103.466 282.427 103.466 286.19C103.466 289.953 106.517 293.003 110.28 293.003Z" fill="#E6E6E6"/>
<path id="Vector_85" d="M144.769 293.003C148.532 293.003 151.582 289.953 151.582 286.19C151.582 282.427 148.532 279.376 144.769 279.376C141.006 279.376 137.956 282.427 137.956 286.19C137.956 289.953 141.006 293.003 144.769 293.003Z" fill="#E6E6E6"/>
<path id="Vector_86" d="M179.258 293.003C183.021 293.003 186.071 289.953 186.071 286.19C186.071 282.427 183.021 279.376 179.258 279.376C175.495 279.376 172.445 282.427 172.445 286.19C172.445 289.953 175.495 293.003 179.258 293.003Z" fill="#E6E6E6"/>
<path id="Vector_87" d="M213.747 293.003C217.51 293.003 220.56 289.953 220.56 286.19C220.56 282.427 217.51 279.376 213.747 279.376C209.984 279.376 206.934 282.427 206.934 286.19C206.934 289.953 209.984 293.003 213.747 293.003Z" fill="#E6E6E6"/>
<path id="Vector_88" d="M248.236 293.003C251.999 293.003 255.049 289.953 255.049 286.19C255.049 282.427 251.999 279.376 248.236 279.376C244.473 279.376 241.423 282.427 241.423 286.19C241.423 289.953 244.473 293.003 248.236 293.003Z" fill="#E6E6E6"/>
<path id="Vector_89" d="M282.725 293.003C286.488 293.003 289.538 289.953 289.538 286.19C289.538 282.427 286.488 279.376 282.725 279.376C278.962 279.376 275.912 282.427 275.912 286.19C275.912 289.953 278.962 293.003 282.725 293.003Z" fill="#E6E6E6"/>
<path id="Vector_90" d="M317.214 293.003C320.977 293.003 324.027 289.953 324.027 286.19C324.027 282.427 320.977 279.376 317.214 279.376C313.451 279.376 310.401 282.427 310.401 286.19C310.401 289.953 313.451 293.003 317.214 293.003Z" fill="#E6E6E6"/>
<path id="Vector_91" d="M6.81267 327.925C10.5756 327.925 13.626 324.874 13.626 321.112C13.626 317.349 10.5756 314.298 6.81267 314.298C3.04977 314.298 -0.000671387 317.349 -0.000671387 321.112C-0.000671387 324.874 3.04977 327.925 6.81267 327.925Z" fill="#E6E6E6"/>
<path id="Vector_92" d="M41.3017 327.925C45.0646 327.925 48.115 324.874 48.115 321.112C48.115 317.349 45.0646 314.298 41.3017 314.298C37.5388 314.298 34.4883 317.349 34.4883 321.112C34.4883 324.874 37.5388 327.925 41.3017 327.925Z" fill="#E6E6E6"/>
<path id="Vector_93" d="M75.7908 327.925C79.5537 327.925 82.6041 324.874 82.6041 321.112C82.6041 317.349 79.5537 314.298 75.7908 314.298C72.0279 314.298 68.9774 317.349 68.9774 321.112C68.9774 324.874 72.0279 327.925 75.7908 327.925Z" fill="#E6E6E6"/>
<path id="Vector_94" d="M110.28 327.925C114.043 327.925 117.093 324.874 117.093 321.112C117.093 317.349 114.043 314.298 110.28 314.298C106.517 314.298 103.466 317.349 103.466 321.112C103.466 324.874 106.517 327.925 110.28 327.925Z" fill="#E6E6E6"/>
<path id="Vector_95" d="M144.769 327.925C148.532 327.925 151.582 324.874 151.582 321.112C151.582 317.349 148.532 314.298 144.769 314.298C141.006 314.298 137.956 317.349 137.956 321.112C137.956 324.874 141.006 327.925 144.769 327.925Z" fill="#E6E6E6"/>
<path id="Vector_96" d="M179.258 327.925C183.021 327.925 186.071 324.874 186.071 321.112C186.071 317.349 183.021 314.298 179.258 314.298C175.495 314.298 172.445 317.349 172.445 321.112C172.445 324.874 175.495 327.925 179.258 327.925Z" fill="#E6E6E6"/>
<path id="Vector_97" d="M213.747 327.925C217.51 327.925 220.56 324.874 220.56 321.112C220.56 317.349 217.51 314.298 213.747 314.298C209.984 314.298 206.934 317.349 206.934 321.112C206.934 324.874 209.984 327.925 213.747 327.925Z" fill="#E6E6E6"/>
<path id="Vector_98" d="M248.236 327.925C251.999 327.925 255.049 324.874 255.049 321.112C255.049 317.349 251.999 314.298 248.236 314.298C244.473 314.298 241.423 317.349 241.423 321.112C241.423 324.874 244.473 327.925 248.236 327.925Z" fill="#E6E6E6"/>
<path id="Vector_99" d="M282.725 327.925C286.488 327.925 289.538 324.874 289.538 321.112C289.538 317.349 286.488 314.298 282.725 314.298C278.962 314.298 275.912 317.349 275.912 321.112C275.912 324.874 278.962 327.925 282.725 327.925Z" fill="#E6E6E6"/>
<path id="Vector_100" d="M317.214 327.925C320.977 327.925 324.027 324.874 324.027 321.112C324.027 317.349 320.977 314.298 317.214 314.298C313.451 314.298 310.401 317.349 310.401 321.112C310.401 324.874 313.451 327.925 317.214 327.925Z" fill="#E6E6E6"/>
<path id="Vector_101" d="M400.404 60.8918C402.689 60.8918 404.88 61.7993 406.495 63.4148C408.111 65.0302 409.018 67.2212 409.018 69.5058V414.065C409.018 415.196 408.796 416.316 408.363 417.362C407.93 418.407 407.295 419.356 406.495 420.156C405.695 420.956 404.746 421.591 403.701 422.023C402.656 422.456 401.536 422.679 400.404 422.679H153.183C152.052 422.679 150.932 422.456 149.886 422.023C148.841 421.591 147.892 420.956 147.092 420.156C146.292 419.356 145.658 418.407 145.225 417.362C144.792 416.316 144.569 415.196 144.569 414.065V69.5058C144.569 67.2212 145.476 65.0302 147.092 63.4147C148.707 61.7993 150.898 60.8918 153.183 60.8918H400.404" fill="#E6E6E6"/>
<path id="Vector_102" d="M154.186 413.062H399.401V70.5085H154.186V413.062Z" fill="white"/>
<path id="Vector_103" d="M344.844 124.704C345.07 124.704 345.294 124.749 345.503 124.835C345.712 124.922 345.902 125.049 346.062 125.209C346.222 125.369 346.349 125.559 346.436 125.768C346.522 125.977 346.567 126.201 346.567 126.427V129.872C346.567 130.329 346.385 130.768 346.062 131.091C345.739 131.414 345.301 131.595 344.844 131.595H208.743C208.517 131.595 208.293 131.551 208.084 131.464C207.875 131.378 207.685 131.251 207.525 131.091C207.365 130.931 207.238 130.741 207.151 130.532C207.065 130.323 207.02 130.099 207.02 129.872V126.427C207.02 126.201 207.065 125.977 207.151 125.768C207.238 125.559 207.365 125.369 207.525 125.209C207.685 125.049 207.875 124.922 208.084 124.835C208.293 124.749 208.517 124.704 208.743 124.704H344.844" fill="#E6E6E6"/>
<path id="Vector_104" d="M344.844 141.071C345.301 141.071 345.739 141.252 346.062 141.575C346.385 141.898 346.567 142.337 346.567 142.793V146.239C346.567 146.696 346.385 147.134 346.062 147.457C345.739 147.78 345.301 147.962 344.844 147.962H208.743C208.517 147.962 208.293 147.917 208.084 147.831C207.875 147.744 207.685 147.617 207.525 147.457C207.365 147.297 207.238 147.107 207.151 146.898C207.065 146.689 207.02 146.465 207.02 146.239V142.793C207.02 142.567 207.065 142.343 207.151 142.134C207.238 141.925 207.365 141.735 207.525 141.575C207.685 141.415 207.875 141.288 208.084 141.202C208.293 141.115 208.517 141.071 208.743 141.071H344.844" fill="#E6E6E6"/>
<path id="Vector_105" d="M344.844 157.437C345.301 157.437 345.739 157.619 346.062 157.942C346.385 158.265 346.567 158.703 346.567 159.16V162.606C346.567 163.063 346.385 163.501 346.062 163.824C345.739 164.147 345.301 164.328 344.844 164.328H208.743C208.286 164.328 207.848 164.147 207.525 163.824C207.202 163.501 207.02 163.063 207.02 162.606V159.16C207.02 158.703 207.202 158.265 207.525 157.942C207.848 157.619 208.286 157.437 208.743 157.437H344.844" fill="#6C63FF"/>
<path id="Vector_106" d="M344.844 174.162C345.301 174.162 345.739 174.343 346.062 174.667C346.385 174.99 346.567 175.428 346.567 175.885V179.33C346.567 179.787 346.385 180.225 346.062 180.549C345.739 180.872 345.301 181.053 344.844 181.053H208.743C208.517 181.053 208.293 181.009 208.084 180.922C207.875 180.835 207.685 180.709 207.525 180.549C207.365 180.389 207.238 180.199 207.151 179.99C207.065 179.781 207.02 179.557 207.02 179.33V175.885C207.02 175.659 207.065 175.435 207.151 175.226C207.238 175.016 207.365 174.827 207.525 174.667C207.685 174.507 207.875 174.38 208.084 174.293C208.293 174.207 208.517 174.162 208.743 174.162H344.844" fill="#E6E6E6"/>
<path id="Vector_107" d="M344.844 190.529C345.301 190.529 345.739 190.71 346.062 191.033C346.385 191.356 346.567 191.794 346.567 192.251V195.697C346.567 195.923 346.522 196.147 346.436 196.356C346.349 196.565 346.222 196.755 346.062 196.915C345.902 197.075 345.712 197.202 345.503 197.289C345.294 197.375 345.07 197.42 344.844 197.42H208.743C208.517 197.42 208.293 197.375 208.084 197.289C207.875 197.202 207.685 197.075 207.525 196.915C207.365 196.755 207.238 196.565 207.151 196.356C207.065 196.147 207.02 195.923 207.02 195.697V192.251C207.02 192.025 207.065 191.801 207.151 191.592C207.238 191.383 207.365 191.193 207.525 191.033C207.685 190.873 207.875 190.746 208.084 190.66C208.293 190.573 208.517 190.529 208.743 190.529H344.844" fill="#E6E6E6"/>
<path id="Vector_108" d="M344.844 206.895C345.301 206.895 345.739 207.077 346.062 207.4C346.385 207.723 346.567 208.161 346.567 208.618V212.064C346.567 212.52 346.385 212.959 346.062 213.282C345.739 213.605 345.301 213.786 344.844 213.786H208.743C208.286 213.786 207.848 213.605 207.525 213.282C207.202 212.959 207.02 212.52 207.02 212.064V208.618C207.02 208.161 207.202 207.723 207.525 207.4C207.848 207.077 208.286 206.895 208.743 206.895H344.844" fill="#E6E6E6"/>
<path id="Vector_109" d="M209.612 261.951C209.082 261.952 208.574 262.163 208.199 262.538C207.824 262.913 207.613 263.421 207.612 263.951V356.867C207.613 357.397 207.824 357.905 208.199 358.28C208.574 358.655 209.082 358.866 209.612 358.867H343.743C344.273 358.866 344.782 358.655 345.157 358.28C345.532 357.905 345.743 357.397 345.743 356.867V263.951C345.743 263.421 345.532 262.913 345.157 262.538C344.782 262.163 344.273 261.952 343.743 261.951H209.612Z" fill="#6C63FF"/>
<path id="Vector_110" d="M277.241 161.182L275.833 160.808L306.56 45.221H484.785V46.678H307.679L277.241 161.182Z" fill="#3F3D56"/>
<path id="Vector_111" d="M499.348 61.2404C496.323 61.2404 493.367 60.3436 490.852 58.6635C488.338 56.9833 486.378 54.5951 485.221 51.8011C484.063 49.0071 483.761 45.9326 484.351 42.9664C484.941 40.0003 486.397 37.2757 488.535 35.1372C490.674 32.9987 493.398 31.5424 496.365 30.9524C499.331 30.3624 502.405 30.6652 505.199 31.8226C507.993 32.9799 510.381 34.9398 512.062 37.4543C513.742 39.9689 514.639 42.9253 514.639 45.9495C514.634 50.0035 513.021 53.8901 510.155 56.7567C507.288 59.6233 503.402 61.2358 499.348 61.2404V61.2404ZM499.348 32.1149C496.611 32.1149 493.937 32.9263 491.662 34.4464C489.386 35.9666 487.613 38.1273 486.566 40.6552C485.519 43.1832 485.245 45.9649 485.779 48.6485C486.313 51.3322 487.63 53.7973 489.565 55.7321C491.5 57.6669 493.965 58.9845 496.649 59.5183C499.332 60.0521 502.114 59.7782 504.642 58.731C507.17 57.6839 509.331 55.9107 510.851 53.6356C512.371 51.3605 513.182 48.6857 513.182 45.9495C513.178 42.2816 511.719 38.7651 509.126 36.1716C506.532 33.578 503.016 32.1191 499.348 32.1149Z" fill="#3F3D56"/>
<path id="Vector_112" d="M499.348 51.7746C502.565 51.7746 505.173 49.1666 505.173 45.9495C505.173 42.7324 502.565 40.1244 499.348 40.1244C496.131 40.1244 493.523 42.7324 493.523 45.9495C493.523 49.1666 496.131 51.7746 499.348 51.7746Z" fill="#6C63FF"/>
<path id="Vector_113" d="M272.477 356.941L273.884 357.317L242.937 472.845L64.712 472.504L64.715 471.047L241.82 471.387L272.477 356.941Z" fill="#3F3D56"/>
<path id="Vector_114" d="M50.1797 456.457C53.204 456.463 56.1586 457.365 58.6699 459.05C61.1813 460.735 63.1366 463.127 64.2885 465.923C65.4405 468.719 65.7374 471.794 65.1418 474.759C64.5461 477.724 63.0846 480.446 60.942 482.581C58.7994 484.715 56.072 486.166 53.1048 486.75C50.1375 487.335 47.0636 487.026 44.2718 485.863C41.4799 484.701 39.0956 482.736 37.4202 480.218C35.7449 477.701 34.8537 474.743 34.8595 471.718C34.8719 467.664 36.4918 463.781 39.3639 460.92C42.236 458.059 46.1257 456.454 50.1797 456.457V456.457ZM50.1239 485.582C52.8601 485.587 55.5364 484.781 57.8145 483.265C60.0925 481.75 61.8698 479.592 62.9218 477.066C63.9737 474.54 64.253 471.759 63.7244 469.075C63.1957 466.39 61.8828 463.922 59.9517 461.984C58.0206 460.045 55.558 458.723 52.8754 458.184C50.1928 457.645 47.4106 457.914 44.8806 458.956C42.3507 459.998 40.1866 461.767 38.6621 464.039C37.1376 466.312 36.321 468.985 36.3158 471.721C36.3129 475.389 37.7651 478.908 40.3537 481.507C42.9423 484.105 46.456 485.571 50.1239 485.582V485.582Z" fill="#3F3D56"/>
<path id="Vector_115" d="M50.1504 477.573C53.3675 477.573 55.9755 474.965 55.9755 471.748C55.9755 468.53 53.3675 465.922 50.1504 465.922C46.9333 465.922 44.3253 468.53 44.3253 471.748C44.3253 474.965 46.9333 477.573 50.1504 477.573Z" fill="#6C63FF"/>
</g>
</svg>
