<svg width="198" height="253" viewBox="0 0 198 253" fill="none" xmlns="http://www.w3.org/2000/svg">
<g id="undraw_flagged_2uty 1">
<path id="Vector" d="M141.012 129.22C115.802 129.22 92.82 123.1 72.705 111.029C51.4313 98.2681 7.5585 105.654 4.26846 112.166L0.234283 121.881L11.6039 9.39207L12.0316 8.99363C12.9674 8.09812 35.7533 -12.7251 95.4525 16.561C140.765 38.7832 177.805 28.31 191.627 22.7759C192.334 22.4906 193.101 22.3896 193.858 22.4824C194.615 22.5751 195.336 22.8585 195.953 23.3061C196.57 23.7537 197.063 24.3507 197.387 25.0411C197.71 25.7315 197.852 26.4928 197.801 27.2534L191.551 117.895C191.494 118.792 191.167 119.652 190.612 120.361C190.058 121.07 189.303 121.594 188.445 121.866C173.093 126.684 157.103 129.163 141.012 129.22Z" fill="#F50057"/>
<path id="Vector_2" d="M7.08298 5.70361C5.25093 5.70572 3.49452 6.43442 2.19907 7.72987C0.903616 9.02532 0.174925 10.7817 0.172821 12.6138V245.407C0.172821 247.239 0.90084 248.997 2.19675 250.293C3.49265 251.589 5.25029 252.317 7.08298 252.317C8.91567 252.317 10.6733 251.589 11.9692 250.293C13.2651 248.997 13.9931 247.239 13.9931 245.407V12.6138C13.991 10.7817 13.2623 9.02532 11.9669 7.72987C10.6714 6.43442 8.91502 5.70572 7.08298 5.70361Z" fill="#3F3D56"/>
</g>
</svg>
