<svg xmlns="http://www.w3.org/2000/svg" xmlns:xlink="http://www.w3.org/1999/xlink" viewBox="0 0 1920 1080"><defs><linearGradient id="acf383f9-581a-4568-93ef-264db09a2dc0" x1="48.78" y1="1451.22" x2="1722.53" y2="-222.53" gradientUnits="userSpaceOnUse"><stop offset="0" stop-color="#fff"/><stop offset="0.02" stop-color="#eff2f6"/><stop offset="0.07" stop-color="#cbd5e0"/><stop offset="0.13" stop-color="#abbbcd"/><stop offset="0.19" stop-color="#8fa6bc"/><stop offset="0.26" stop-color="#7994af"/><stop offset="0.35" stop-color="#6886a5"/><stop offset="0.45" stop-color="#5d7d9e"/><stop offset="0.6" stop-color="#56789a"/><stop offset="1" stop-color="#547699"/></linearGradient><radialGradient id="fc7a3efb-406b-4d57-abae-ffab0ac6424e" cx="331.5" cy="298.5" r="60.5" gradientUnits="userSpaceOnUse"><stop offset="0.66" stop-color="#cdd400"/><stop offset="0.71" stop-color="#ced503"/><stop offset="0.76" stop-color="#d0d60e"/><stop offset="0.8" stop-color="#d3d91f"/><stop offset="0.84" stop-color="#d8dd38"/><stop offset="0.88" stop-color="#dee358"/><stop offset="0.91" stop-color="#e6e97f"/><stop offset="0.95" stop-color="#eff1ad"/><stop offset="0.98" stop-color="#f9fae2"/><stop offset="1" stop-color="#fff"/></radialGradient><linearGradient id="a1e31900-259f-4cfe-8391-4d8f5c249e70" x1="1125.55" y1="93.48" x2="1125.55" y2="1079.82" gradientUnits="userSpaceOnUse"><stop offset="0" stop-color="#3da67d"/><stop offset="0.12" stop-color="#389a74" stop-opacity="0.94"/><stop offset="0.35" stop-color="#2c795b" stop-opacity="0.78"/><stop offset="0.66" stop-color="#194433" stop-opacity="0.53"/><stop offset="1" stop-opacity="0.2"/></linearGradient><linearGradient id="f7150c23-45a0-4131-95b1-536c8b429186" x1="730.5" y1="320.5" x2="730.5" y2="1079.5" gradientUnits="userSpaceOnUse"><stop offset="0" stop-color="#3da67d"/><stop offset="0.16" stop-color="#3ca27a" stop-opacity="0.99"/><stop offset="0.31" stop-color="#379671" stop-opacity="0.94"/><stop offset="0.47" stop-color="#308262" stop-opacity="0.87"/><stop offset="0.62" stop-color="#26664d" stop-opacity="0.77"/><stop offset="0.78" stop-color="#184232" stop-opacity="0.64"/><stop offset="0.93" stop-color="#081711" stop-opacity="0.48"/><stop offset="1" stop-opacity="0.4"/></linearGradient><linearGradient id="b871b9e8-3119-470c-b7fc-f59a46e06252" x1="730.5" y1="320" x2="730.5" y2="1080" gradientUnits="userSpaceOnUse"><stop offset="0" stop-color="#3da67d"/><stop offset="0.16" stop-color="#3ca27a"/><stop offset="0.31" stop-color="#379671"/><stop offset="0.47" stop-color="#308262"/><stop offset="0.62" stop-color="#26664d"/><stop offset="0.78" stop-color="#184232"/><stop offset="0.93" stop-color="#081711"/><stop offset="1"/></linearGradient><linearGradient id="acda64bf-be3d-4655-a1de-dbf33fddad29" x1="521.5" y1="690.47" x2="521.5" y2="1080" gradientUnits="userSpaceOnUse"><stop offset="0" stop-color="#3da67d" stop-opacity="0.4"/><stop offset="0.25" stop-color="#399c76" stop-opacity="0.4"/><stop offset="0.49" stop-color="#2e7e5f" stop-opacity="0.4"/><stop offset="0.74" stop-color="#1c4d3a" stop-opacity="0.4"/><stop offset="0.98" stop-color="#030706" stop-opacity="0.4"/><stop offset="1" stop-opacity="0.4"/></linearGradient><linearGradient id="e3563453-6047-478f-8205-da7088779f10" x1="1262.45" y1="433.69" x2="1262.45" y2="1080.5" gradientUnits="userSpaceOnUse"><stop offset="0" stop-color="#3da67d" stop-opacity="0.5"/><stop offset="0.3" stop-color="#3ba179" stop-opacity="0.5"/><stop offset="0.5" stop-color="#348f6b" stop-opacity="0.5"/><stop offset="0.67" stop-color="#297055" stop-opacity="0.5"/><stop offset="0.82" stop-color="#1a4534" stop-opacity="0.5"/><stop offset="0.97" stop-color="#050f0b" stop-opacity="0.5"/><stop offset="1" stop-opacity="0.5"/></linearGradient><linearGradient id="a2185bda-a6df-41c3-b294-bf70260b53f2" x1="1326.64" y1="1077.52" x2="1184.25" y2="726.4" gradientUnits="userSpaceOnUse"><stop offset="0" stop-color="#3da67d"/><stop offset="0.35" stop-color="#229e7b"/><stop offset="0.75" stop-color="#09967a"/><stop offset="1" stop-color="#009379"/></linearGradient><linearGradient id="fb59e2c3-54ab-47f8-9eff-ab2514db648f" x1="906.33" y1="707.79" x2="857.37" y2="792.6" xlink:href="#a2185bda-a6df-41c3-b294-bf70260b53f2"/><linearGradient id="bfd887dc-5331-43f1-879b-454a17f3de74" x1="1387.67" y1="364.47" x2="929.89" y2="697.51" gradientUnits="userSpaceOnUse"><stop offset="0" stop-color="#00936a"/><stop offset="0.43" stop-color="#00966d"/><stop offset="0.78" stop-color="#00a076"/><stop offset="1" stop-color="#00ab7f"/></linearGradient><linearGradient id="a431e05d-aec1-4100-9492-bdfd0cbf0fec" x1="1228.62" y1="107.75" x2="1228.62" y2="386.52" gradientUnits="userSpaceOnUse"><stop offset="0.35" stop-color="#00936a"/><stop offset="0.63" stop-color="#00966d"/><stop offset="0.86" stop-color="#00a076"/><stop offset="1" stop-color="#00ab7f"/></linearGradient></defs><g id="b71216dd-87df-4aeb-9f49-266b6fa2c095" data-name="background"><g id="f4b79c13-035b-41ff-9d4e-5d082525bfb5" data-name="sky"><rect width="1920" height="1080" fill="url(#acf383f9-581a-4568-93ef-264db09a2dc0)"/></g><circle id="a6df1848-2db8-4620-9bf5-9e794172afe1" data-name="sun" cx="331.5" cy="298.5" r="60.5" fill="url(#fc7a3efb-406b-4d57-abae-ffab0ac6424e)"/><path id="b6208c95-5a20-4c83-9985-e6bcd6e97c5d" data-name="cloud-1" d="M662,94s129-1,239,45,135,74,406,24,317-1,317-1,42,25-21,38-17,53-17,53,206.2,5.14,193.6-25.93S1922,208,1922,208V160s-81-8-179-80-197,29-324-13,77-6,115-67S-2,0-2,0,397,94,662,94Z" fill="#fff" opacity="0.3"/><path id="bf1463c5-51c6-4eb5-918a-79067996123e" data-name="cloud-2" d="M121,390H613s-80.86-.63-179-38.85-167.69-18.8-207.44,5.64S175.65,377.47,121,390Z" fill="#fff" opacity="0.3"/></g><g id="f687848d-34eb-4d64-9542-d6b337363152" data-name="back-mountains"><path id="f2e01398-1e08-4d42-a351-9ed8ecdcd913" data-name="peak" d="M629.9,605.88S654,544,688,598,803,477,865,495s150-44,186-202c66-154,68-142,119-144s75-104,147-26,70,66,138,183c35,40,55-55,104,28s63,141,63,141v605H629.9Z" fill="#3da67d"/><path id="a8db1c31-3702-40f5-b807-29f32799ea70" data-name="peak-gradient" d="M629.49,605.7s24.11-61.88,58.11-7.88,115-121,177-103,150-44,186-202c66-154,68-142,119-144s75-104,147-26,70,66,138,183c35,40,55-55,104,28s63,141,63,141v605H629.49Z" fill="url(#a1e31900-259f-4cfe-8391-4d8f5c249e70)"/><path id="b950bf90-f581-4b45-895e-84f0ab63e441" data-name="last" d="M-2,893.92S92,901,123,836s89-105,104-103,38-79,145-85c25-46,58-36,58-36s46-34,61-53,65-77,142,52c116,118,73,130,124,48s59-309,186-197c58-8,77-125,157-141,66,0,61,118,204,40,66-16,88,30,124,98l36,68v553H0Z" fill="#3da67d"/><path id="f47986ff-c9bf-47ab-a4cc-4a7d8408d8ca" data-name="last-gradient" d="M-2.5,893.42s94,7.08,125-57.92,89-105,104-103,38-79,145-85c25-46,58-36,58-36s46-34,61-53,65-77,142,52c116,118,73,130,124,48s59-309,186-197c58-8,77-125,157-141,66,0,61,118,204,40,66-16,88,30,124,98l36,68v553H-.5Z" fill="url(#f7150c23-45a0-4131-95b1-536c8b429186)" stroke="url(#b871b9e8-3119-470c-b7fc-f59a46e06252)"/></g><g id="fdb5d096-15d9-4716-8e6b-141860f2313f" data-name="middle-mountains"><path id="ebde4671-71d4-4974-be0d-7d7a63502c5a" data-name="mid" d="M0,1080V933.19S39,942,97,908s109-48,227-13,277-53.81,376-138.4S897,678,953,722s90,10,90,10v348Z" fill="#3da67d"/><path id="f1ee8718-d37d-4ba2-bb64-45da1c64d09d" data-name="mid-gradient" d="M0,1080V933.19S39,942,97,908s109-48,227-13,277-53.81,376-138.4S897,678,953,722s90,10,90,10v348Z" fill="url(#acda64bf-be3d-4655-a1de-dbf33fddad29)"/></g><g id="ff11c972-b310-4cc2-86da-28125cbc728b" data-name="front-mountains"><path id="a84e616b-7b54-40d0-b705-cdbdc3991aaa" data-name="front" d="M1920,1080H603.91S660,1024,787,989s138-259,292-283c78-15,154,31,306-156,46-54,47-72,108-51s106-42,106-42,97.11-105,166.56,126S1918,658.28,1918,658.28Z" fill="#3da67d"/><path id="adb794c7-ea00-4da6-b494-ae9bb8404dba" data-name="front-gradient" d="M1920.5,1080.5H604.41s56.09-56,183.09-91,138-259,292-283c78-15,154,31,306-156,46-54,47-72,108-51s106-42,106-42,97.11-105,166.56,126,152.44,75.28,152.44,75.28Z" fill="url(#e3563453-6047-478f-8205-da7088779f10)"/></g><g id="e2f84336-3a6a-409d-8d97-dd5934d4891b" data-name="Roads"><path id="b2fec6aa-c92b-4eaf-ad58-fada5a632a22" data-name="road-1" d="M1209.44,1080.5h176.72s62-303.69-248.12-378.9c-44.54.9-56.84,4-56.84,4S1328.37,816.5,1209.44,1080.5Z" fill="url(#a2185bda-a6df-41c3-b294-bf70260b53f2)"/><path id="e2f8df79-917d-4319-975b-24f37dbfd256" data-name="road-2" d="M965.15,780.72s-8.29,10.7-10.72,14.49-340.63-5.93-73-103.07c16.6,2.86,16.28,3.16,16.28,3.16s-271.19,93.37,73.94,77.37L965,781" fill="url(#fb59e2c3-54ab-47f8-9eff-ab2514db648f)"/><path id="a7df447d-0735-49e7-95c2-6eb8b9c892fe" data-name="road-3" d="M929.93,707.29s10.06,5.37,14.56,8.54,570-297.42,367.73-357.13c-6.22,1.3-6.91,1.38-6.91,1.38S1497.86,405.58,929.93,707.29Z" fill="url(#bfd887dc-5331-43f1-879b-454a17f3de74)"/><path id="a374c784-99d9-4cfe-ad79-50c4b269cc06" data-name="road-4" d="M1262,104h6s119,67-32,99-59.93,124.68,23.36,177.23a101.71,101.71,0,0,1-11.55,3.35s-222.3-137.89-14.06-186.24C1272,188,1360,169,1262,104Z" fill="url(#a431e05d-aec1-4100-9492-bdfd0cbf0fec)"/></g></svg>