<svg width="136" height="369" viewBox="0 0 136 369" fill="none" xmlns="http://www.w3.org/2000/svg">
<rect width="136" height="369" fill="#E5E5E5"/>
<g id="undraw_Hiking_re_k0bc (1) 1">
<g id="left-leg">
<path id="Vector" d="M7.15601 348.578L16.935 352.211L35.602 316.221L21.169 310.859L7.15601 348.578Z" fill="#FFB7B7"/>
<path id="Left Leg" d="M29.7823 339.97L73.1793 243.816L96.5796 160L58.7136 161.276C42.5461 175.742 45.9498 197.015 45.9498 197.015L40.8442 237.008L0 332.312L29.7823 339.97Z" fill="#2F2E41"/>
<path id="Left Leg Outline" opacity="0.2" d="M46.4971 197.305L45.5036 197.191L40.9999 236.513L41.9934 236.627L46.4971 197.305Z" fill="black"/>
<path id="Vector_2" d="M5.84741 344.458L25.1058 351.613L25.1066 351.613C28.3614 352.823 31.0024 355.276 32.4488 358.433C33.8951 361.589 34.0284 365.191 32.8192 368.446L32.671 368.845L1.1394 357.13L5.84741 344.458Z" fill="#2F2E41"/>
</g>
<g id="right-leg">
<path id="Vector_3" d="M103.392 358.733L113.824 358.732L118.787 318.494L103.39 318.495L103.392 358.733Z" fill="#FFB7B7"/>
<path id="Right Leg" d="M111.471 211.481L96.5796 160L58.7136 161.276C54.0845 165.497 53.9757 173.851 54.5 177.5L73.1792 243.816L97.856 333.162L124.66 334.439L119.129 279.554L111.471 211.481Z" fill="#2F2E41"/>
<path id="Right Leg Outline" opacity="0.2" d="M54.9624 177L54 177.271L72.7202 243.643L73.6826 243.372L54.9624 177Z" fill="black"/>
<path id="Vector_4" d="M101.582 355.327L122.126 355.326H122.127C125.599 355.326 128.929 356.706 131.385 359.161C133.84 361.616 135.22 364.946 135.22 368.418V368.844L101.582 368.845L101.582 355.327Z" fill="#2F2E41"/>
</g>
<g id="head">
<path id="Vector_5" d="M99.2755 59.6359C105.284 48.6443 101.244 34.8629 90.2528 28.8543C79.2612 22.8457 65.4798 26.8853 59.4712 37.8769C53.4626 48.8686 57.5022 62.65 68.4938 68.6586C79.4855 74.6672 93.2669 70.6276 99.2755 59.6359Z" fill="#FFB7B7"/>
<path id="Vector_6" d="M44.6649 40.6594C55.747 40.6594 64.7307 31.6756 64.7307 20.5936C64.7307 9.51161 55.747 0.527863 44.6649 0.527863C33.5829 0.527863 24.5992 9.51161 24.5992 20.5936C24.5992 31.6756 33.5829 40.6594 44.6649 40.6594Z" fill="#2F2E41"/>
<path id="Vector_7" d="M19.2011 18.4444C18.4097 21.103 18.1781 23.8969 18.5209 26.6496C18.8637 29.4023 19.7735 32.054 21.1928 34.4373C22.6122 36.8206 24.5103 38.8838 26.7672 40.4966C29.0242 42.1093 31.591 43.2366 34.3056 43.8073C37.0202 44.378 39.8237 44.3797 42.539 43.8122C45.2543 43.2447 47.8224 42.1205 50.0813 40.5104C52.3401 38.9003 54.2407 36.8394 55.6629 34.4578C57.085 32.0761 57.9979 29.4255 58.344 26.6732C56.9064 31.5004 53.7061 35.6104 49.3784 38.1873C45.0508 40.7642 39.9124 41.6194 34.9834 40.5832C30.0544 39.547 25.6953 36.6952 22.7716 32.5939C19.8479 28.4926 18.5734 23.4418 19.2011 18.4444V18.4444Z" fill="#2F2E41"/>
<path id="Vector_8" d="M98.4728 42.4593C99.0617 47.646 97.9234 52.8822 95.2344 57.3564C92.5455 61.8306 88.4559 65.293 83.5995 67.2071C78.743 69.1213 73.3908 69.3803 68.3722 67.944C63.3537 66.5077 58.949 63.4563 55.8406 59.2626C52.7322 55.069 51.0936 49.9672 51.1789 44.7478C51.2642 39.5285 53.0685 34.4829 56.3123 30.3931C59.556 26.3032 64.0581 23.3974 69.1209 22.1258C74.1837 20.8542 79.5246 21.2879 84.3159 23.3597C88.2785 20.164 93.1914 21.1545 97.1855 24.5271C101.702 28.3406 103.043 30.9604 106.545 37.2317C103.101 37.7154 101.917 41.9756 98.4728 42.4593Z" fill="#2F2E41"/>
</g>
<g id="body">
<path id="Shirt" d="M59.139 73L55.7354 79.8074L47.6516 98.9532L56.1608 143.975V153.412L58.7136 161.07L96.5796 159.794L98.7069 138.946L100.409 122.779C102.111 105.761 92.7504 100.655 92.7504 100.655L87.2194 93.4221L88.0704 87.4657L59.139 73Z" fill="#2F2E41"/>
<g id="Belt">
<path id="Vector_9" d="M56.481 163.905H98.1762V159.65H56.481V163.905Z" fill="#3F3D56"/>
<path id="Vector_10" d="M98.1762 166.458C99.1161 166.458 99.8781 164.553 99.8781 162.203C99.8781 159.853 99.1161 157.948 98.1762 157.948C97.2363 157.948 96.4744 159.853 96.4744 162.203C96.4744 164.553 97.2363 166.458 98.1762 166.458Z" fill="#3F3D56"/>
</g>
<path id="Vector_11" d="M15.0989 110.67C15.3527 117.392 15.8557 130.623 15.8557 131.298C15.8557 132.01 25.8865 152.779 30.2198 161.717V161.722C30.5281 162.352 30.8044 162.923 31.0492 163.426C31.3843 164.12 31.9113 164.703 32.5677 165.106C33.224 165.509 33.9822 165.716 34.7524 165.701L53.6897 165.361C54.7306 165.344 55.7244 164.924 56.4635 164.191C57.2025 163.458 57.6298 162.468 57.6559 161.427L59.7681 78.1122C59.7751 77.8375 59.7271 77.5641 59.6268 77.3082C59.5266 77.0524 59.3761 76.8192 59.1844 76.6224C58.9926 76.4255 58.7634 76.2691 58.5102 76.1622C58.2571 76.0553 57.9851 76.0001 57.7103 75.9999H33.2883C32.2567 76.0004 31.2461 76.2915 30.3723 76.8398C29.4986 77.3882 28.7969 78.1716 28.3478 79.1003L16.6264 103.35C15.5274 105.629 15.0029 108.142 15.0989 110.67V110.67Z" fill="#6C63FF"/>
<path id="Vector_12" d="M57.9854 155.71C62.8447 152.765 67.2112 149.075 70.9248 144.774C79.5537 135.069 84.8015 122.827 85.8802 109.886C86.8431 98.8136 84.646 90.5833 79.3502 85.4234C72.6186 78.8643 63.4558 79.8173 63.0691 79.8614L62.6589 79.9079L56.4512 85.1605L58.2079 87.2365L63.7623 82.5365C65.4625 82.4515 72.4039 82.4331 77.4744 87.3927C82.1416 91.9579 84.0581 99.4466 83.1708 109.651C82.1443 121.972 77.1604 133.631 68.963 142.887C65.4266 146.978 61.2813 150.499 56.6727 153.328L57.9854 155.71Z" fill="#6C63FF"/>
<path id="Vector_13" d="M22.7457 124.057L22.5633 124.945L55.6523 131.741L55.8346 130.853L22.7457 124.057Z" fill="#3F3D56"/>
<path id="Vector_14" d="M44.5547 75.9815L42.4055 128.632L43.3114 128.669L45.4605 76.0185L44.5547 75.9815Z" fill="#3F3D56"/>
<path id="Vector_15" d="M15.0989 110.67C15.3527 117.392 15.8558 130.623 15.8558 131.298C15.8558 132.01 25.8865 152.779 30.2198 161.717L22.1426 114.818C21.8302 113.013 21.044 111.324 19.8646 109.923C18.6851 108.522 17.1546 107.46 15.4297 106.845C15.1583 108.101 15.0472 109.386 15.0989 110.67V110.67Z" fill="#3F3D56"/>
</g>
<g id="arm">
<path id="Vector_16" d="M64.7246 208.959C64.0095 208.037 63.505 206.97 63.2469 205.832C62.9888 204.695 62.9833 203.514 63.2308 202.374C63.4782 201.235 63.9725 200.163 64.679 199.234C65.3855 198.306 66.2869 197.544 67.3197 197.002L65.6781 178.843L76.4703 175.153L78.4283 200.831C79.2241 202.626 79.3337 204.651 78.7362 206.522C78.1387 208.393 76.8757 209.98 75.1866 210.981C73.4974 211.983 71.4994 212.331 69.5712 211.958C67.643 211.585 65.9186 210.518 64.7246 208.959V208.959Z" fill="#FFB7B7"/>
<path id="Vector_17" d="M57.6613 99.3586C57.4503 96.601 58.1636 93.8517 59.6885 91.5444C61.2134 89.2371 63.4632 87.5033 66.0828 86.6164C68.3926 85.8535 70.8869 85.8557 73.1953 86.6226C75.6656 87.4644 77.8089 89.0611 79.3222 91.1873C80.8356 93.3134 81.6424 95.8615 81.6287 98.4712L82.4378 190.694L63.3147 191.387L57.6613 99.3586Z" fill="#CBCBCB"/>
</g>
</g>
</svg>
